<svg width="32" height="33" viewBox="0 0 32 33" fill="none" xmlns="http://www.w3.org/2000/svg">
<path d="M31 10.0833V23.4167C31 25.6268 30.122 27.7464 28.5592 29.3092C26.9964 30.872 24.8768 31.75 22.6667 31.75H9.33333C7.1232 31.75 5.00358 30.872 3.44078 29.3092C1.87797 27.7464 1 25.6268 1 23.4167V10.0833C1 7.8732 1.87797 5.75358 3.44078 4.19078C5.00358 2.62797 7.1232 1.75 9.33333 1.75H22.6667C24.8768 1.75 26.9964 2.62797 28.5592 4.19078C30.122 5.75358 31 7.8732 31 10.0833Z" stroke="black" stroke-width="2" stroke-linecap="round" stroke-linejoin="round"/>
<path d="M14.3333 31.75V16.75C14.3333 13.1033 15.1667 10.0833 21 10.0833M11 18.4167H21" stroke="black" stroke-width="2" stroke-linecap="round" stroke-linejoin="round"/>
</svg>
