<svg width="32" height="32" viewBox="0 0 32 32" fill="none" xmlns="http://www.w3.org/2000/svg">
<path d="M31 9.33333V22.6667C31 24.8768 30.122 26.9964 28.5592 28.5592C26.9964 30.122 24.8768 31 22.6667 31H9.33333C7.1232 31 5.00358 30.122 3.44078 28.5592C1.87797 26.9964 1 24.8768 1 22.6667V9.33333C1 7.1232 1.87797 5.00358 3.44078 3.44078C5.00358 1.87797 7.1232 1 9.33333 1H22.6667C24.8768 1 26.9964 1.87797 28.5592 3.44078C30.122 5.00358 31 7.1232 31 9.33333Z" stroke="black" stroke-width="2" stroke-linecap="round" stroke-linejoin="round"/>
<path d="M13.4009 24.5V20.7225C13.4009 20.2259 13.6615 19.7012 14.183 19.1486C12.9653 18.9519 11.8772 18.5524 11.0087 17.9257C9.7055 16.9845 8.9 15.5311 8.9 14.095C8.9 13.1113 9.278 12.1905 9.93635 11.4061C10.2383 11.046 9.683 7.62085 10.7 8.04119C11.7166 8.46153 12.7273 9.42875 13.7839 9.16961C14.5106 8.99151 15.29 8.89487 16.1 8.89487C16.9944 8.89275 17.8845 9.01461 18.7429 9.25672C19.5065 9.47469 20.9645 8.48753 21.959 8.04119C22.9531 7.59528 21.8343 10.9073 22.2168 11.3511C22.9035 12.1475 23.3 13.0879 23.3 14.095C23.3 15.5311 22.634 16.9845 21.3308 17.9253C20.5681 18.4765 19.5866 18.8518 18.5048 19.0685C18.9985 19.6925 19.246 20.2532 19.246 20.7498V24.5M8 19.3887C8.40455 19.4364 8.7047 19.6154 8.9 19.9261C9.1934 20.3915 10.2833 22.1196 11.5213 22.1196H13.4009" stroke="black" stroke-width="2" stroke-linecap="round"/>
</svg>
