<svg width="32" height="28" viewBox="0 0 32 28" fill="none" xmlns="http://www.w3.org/2000/svg">
<path d="M1 5.36111C1 4.44022 1.35119 3.55704 1.97631 2.90588C2.60143 2.25471 3.44928 1.88889 4.33333 1.88889H27.6667C28.5507 1.88889 29.3986 2.25471 30.0237 2.90588C30.6488 3.55704 31 4.44022 31 5.36111V22.7222C31 23.6431 30.6488 24.5263 30.0237 25.1775C29.3986 25.8286 28.5507 26.1944 27.6667 26.1944H4.33333C3.44928 26.1944 2.60143 25.8286 1.97631 25.1775C1.35119 24.5263 1 23.6431 1 22.7222V5.36111Z" stroke="black" stroke-width="2" stroke-linecap="round" stroke-linejoin="round"/>
<path d="M1 5.36111L16 15.7778L31 5.36111" stroke="black" stroke-width="2" stroke-linecap="round" stroke-linejoin="round"/>
</svg>
