<svg xmlns="http://www.w3.org/2000/svg" width="24" height="42" viewBox="0 0 34 52" fill="none">
<path d="M16.6667 20.8333C14.375 20.8333 12.5 18.9583 12.5 16.6667C12.5 14.375 14.375 12.5 16.6667 12.5C18.9583 12.5 20.8333 14.375 20.8333 16.6667C20.8333 18.9583 18.9583 20.8333 16.6667 20.8333ZM30.1666 17.0833C30.1666 9.52083 23.6458 3.33334 16.6667 3.33334C9.6875 3.33334 3.16663 9.52083 3.16663 17.0833C3.16663 21.9583 8.22917 29.7917 16.6667 37.5C25.1042 29.7917 30.1666 21.9583 30.1666 17.0833ZM16.6667 0C25.4167 0 33.3333 6.70833 33.3333 17.0833C33.3333 24 27.7708 32.1875 16.6667 41.6667C5.5625 32.1875 0 24 0 17.0833C0 6.70833 7.91667 0 16.6667 0Z" fill="#A1001B"/>
</svg>